<svg id="Capa_1" data-name="Capa 1" xmlns="http://www.w3.org/2000/svg" viewBox="0 0 501 449.62"><defs><style>.cls-1{fill:#fff;}</style></defs><path class="cls-1" d="M474.39,95.42H37.62a32.12,32.12,0,1,1,0-64.23H474.39a32.12,32.12,0,0,1,0,64.23Z" transform="translate(-5.5 -31.19)"/><path class="cls-1" d="M294.54,288.12H37.62a32.12,32.12,0,0,1,0-64.24H294.54a32.12,32.12,0,0,1,0,64.24Z" transform="translate(-5.5 -31.19)"/><path class="cls-1" d="M474.39,480.81H37.62a32.12,32.12,0,1,1,0-64.23H474.39a32.12,32.12,0,0,1,0,64.23Z" transform="translate(-5.5 -31.19)"/></svg>